<svg height="512" viewBox="0 0 512 512" width="512" xmlns="http://www.w3.org/2000/svg"><g id="flat"><path d="m456 224a8 8 0 0 1 -8-8v-16a16 16 0 0 0 -32 0v16a8 8 0 0 1 -16 0v-16a32 32 0 0 1 64 0v16a8 8 0 0 1 -8 8z" fill="#cbcbcb"/><path d="m180.8 328-26.1-260.985a30 30 0 0 0 -29.85-27.015h-84.85a16 16 0 0 0 -16 16 16 16 0 0 0 16 16h83.2l28.8 288v64h232a16 16 0 0 0 16-16 16 16 0 0 0 -16-16h-200v-32h257.582a30.417 30.417 0 0 0 30.418-30.418v-1.582z" fill="#cbcbcb"/><circle cx="192" cy="424" fill="#0a71cd" r="40"/><circle cx="192" cy="424" fill="#cbcbcb" r="16"/><circle cx="368" cy="424" fill="#0a71cd" r="40"/><circle cx="368" cy="424" fill="#cbcbcb" r="16"/><path d="m256 136h120v192h-120z" fill="#fbb540"/><path d="m376 216h112a0 0 0 0 1 0 0v96a16 16 0 0 1 -16 16h-96a0 0 0 0 1 0 0v-112a0 0 0 0 1 0 0z" fill="#02a437"/><path d="m256 328-24-16-24 16v-192h48z" fill="#ea9d2d"/><g fill="#e82f3e"><path d="m312 216a32.036 32.036 0 0 1 -32-32v-16a8 8 0 0 1 16 0v16a16 16 0 0 0 32 0v-16a8 8 0 0 1 16 0v16a32.036 32.036 0 0 1 -32 32z"/><path d="m96 72v-32h-56a16 16 0 0 0 -16 16 16 16 0 0 0 16 16z"/></g></g></svg>